# xmcd
#
# Track frame offsets: 
#        150
#        19557
#        41345
#        65450
#        104643
#        133801
#        154889
#        180234
#        214835
#        243842
#        283098
#
# Disc length: 3987 seconds
#
# Revision: 0
# Processed by: cddbd v1.5.2PL0 Copyright (c) Steve Scherf et al.
# Submitted via: ExactAudioCopy v0.95b3
#
DISCID=960f910b
DTITLE=Def Leppard  - Hysteria - (Deluxe Edition) - Disc 2
DYEAR=1900
DGENRE=
TTITLE0=Elected (Live)
TTITLE1=Love and Affection (Live)
TTITLE2=Billy's Got A Gun (Live)
TTITLE3=Rock Of Ages (Live)
TTITLE4=Women (Live)
TTITLE5=Animal (Extended Version)
TTITLE6=Pour Some Sugar On Me (Extended Version)
TTITLE7=Armegeddon It (The Nuclear Mix)
TTITLE8=Excitable (Orgasmix Mix)
TTITLE9=Rocket (The Lunar Mix)
TTITLE10=Release Me
EXTD=
EXTT0=
EXTT1=
EXTT2=
EXTT3=
EXTT4=
EXTT5=
EXTT6=
EXTT7=
EXTT8=
EXTT9=
EXTT10=
PLAYORDER=
